<svg id="Group_4" data-name="Group 4" xmlns="http://www.w3.org/2000/svg" width="523.435" height="533.251" viewBox="0 0 523.435 533.251">
  <path id="Path_31" data-name="Path 31" d="M302.57,78.134c-12.2.014-22.085,10.278-22.1,22.944V587.506c.014,12.666,9.9,22.93,22.1,22.944h205.1c12.2-.015,22.084-10.278,22.1-22.944V101.078c-.014-12.666-9.9-22.93-22.1-22.944Z" transform="translate(-239.414 -78.134)" fill="#e6e6e6"/>
  <path id="Path_32" data-name="Path 32" d="M578.881,202.685V163.647a86.876,86.876,0,0,1-55.84-43.16h0a16.028,16.028,0,0,1-9.82,3.356H483.368c16.206,41.942,52.506,71.906,95.513,78.842Z" transform="translate(-302.194 -90.117)" fill="#fff"/>
  <path id="Path_33" data-name="Path 33" d="M597.387,154.517v-37.5c0-11.538-9.005-20.892-20.117-20.888H548.286v3.621a17.474,17.474,0,0,1-5.11,12.426,84.875,84.875,0,0,0,54.211,42.343Z" transform="translate(-320.7 -83.224)" fill="#fff"/>
  <path id="Path_34" data-name="Path 34" d="M382.806,116.949H364.139c-9.147,0-16.561-7.7-16.56-17.2V96.128H320.387c-11.112,0-20.119,9.353-20.117,20.889V581.768a21.261,21.261,0,0,0,5.887,14.77,19.712,19.712,0,0,0,14.23,6.1H502.113a18.871,18.871,0,0,0,2.479-.158c10.067-1.3,17.626-10.181,17.637-20.714V239.639C456.132,231.691,401.059,182.725,382.806,116.949Z" transform="translate(-245.54 -83.225)" fill="#fff"/>
  <path id="Path_35" data-name="Path 35" d="M462.408,125.168h-39.46c18.162,64.565,72.29,112.6,137.238,120.517V206.232c-44.17-7.012-81.415-37.89-97.779-81.064Z" transform="translate(-283.499 -91.441)" fill="#fff"/>
  <path id="Path_36" data-name="Path 36" d="M516.539,589.137H330.083a3.525,3.525,0,0,1-3.453-3.585V537.525a3.525,3.525,0,0,1,3.453-3.585H516.539a3.525,3.525,0,0,1,3.453,3.585v48.027A3.525,3.525,0,0,1,516.539,589.137ZM330.083,535.373a2.113,2.113,0,0,0-2.072,2.151v48.027a2.113,2.113,0,0,0,2.072,2.151H516.539a2.113,2.113,0,0,0,2.072-2.151V537.525a2.113,2.113,0,0,0-2.072-2.151Z" transform="translate(-253.696 -207.134)" fill="#e6e6e6"/>
  <ellipse id="Ellipse_4" data-name="Ellipse 4" cx="14.502" cy="15.059" rx="14.502" ry="15.059" transform="translate(86.054 339.346)" fill="#3f3d56"/>
  <path id="Path_37" data-name="Path 37" d="M414.046,558.427a2.512,2.512,0,0,0,0,5.02H527.992a2.512,2.512,0,0,0,0-5.02Z" transform="translate(-279.997 -214.06)" fill="#e6e6e6"/>
  <path id="Path_38" data-name="Path 38" d="M414.046,579.427a2.512,2.512,0,0,0,0,5.02H527.992a2.512,2.512,0,0,0,0-5.019Z" transform="translate(-279.997 -220.003)" fill="#e6e6e6"/>
  <path id="Path_39" data-name="Path 39" d="M516.539,701.137H330.083a3.525,3.525,0,0,1-3.453-3.585V649.525a3.525,3.525,0,0,1,3.453-3.585H516.539a3.525,3.525,0,0,1,3.453,3.585v48.027A3.525,3.525,0,0,1,516.539,701.137ZM330.083,647.373a2.113,2.113,0,0,0-2.072,2.151v48.027a2.113,2.113,0,0,0,2.072,2.151H516.539a2.113,2.113,0,0,0,2.072-2.151V649.525a2.113,2.113,0,0,0-2.072-2.151Z" transform="translate(-253.696 -238.841)" fill="#e6e6e6"/>
  <ellipse id="Ellipse_5" data-name="Ellipse 5" cx="14.502" cy="15.059" rx="14.502" ry="15.059" transform="translate(86.054 419.649)" fill="#3f3d56"/>
  <path id="Path_40" data-name="Path 40" d="M414.046,670.427a2.512,2.512,0,0,0,0,5.02H527.992a2.512,2.512,0,0,0,0-5.02Z" transform="translate(-279.997 -245.757)" fill="#e6e6e6"/>
  <path id="Path_41" data-name="Path 41" d="M414.046,691.427a2.512,2.512,0,0,0,0,5.02H527.992a2.512,2.512,0,0,0,0-5.02Z" transform="translate(-279.997 -251.71)" fill="#e6e6e6"/>
  <path id="Path_42" data-name="Path 42" d="M431.552,418.174c-36.239.016-65.62-30.493-65.605-68.122,0-.143,0-.293.008-.435.2-37.306,29.626-67.687,65.6-67.687,36.233,0,65.605,30.5,65.605,68.122S467.785,418.174,431.552,418.174Zm0-134.81c-35.29.081-63.935,29.655-64.217,66.3-.008.152-.007.275-.007.39,0,36.846,28.761,66.708,64.238,66.705s64.23-29.865,64.227-66.7-28.761-66.694-64.238-66.691Z" transform="translate(-265.862 -135.669)" fill="#3f3d56"/>
  <path id="Path_43" data-name="Path 43" d="M482.923,370.831l-44.9-26.92a1.337,1.337,0,0,0-1.381,0,1.445,1.445,0,0,0-.691,1.242v53.838a1.445,1.445,0,0,0,.691,1.242,1.337,1.337,0,0,0,1.381,0l44.9-26.92a1.462,1.462,0,0,0,0-2.484l-44.9-26.92a1.337,1.337,0,0,0-1.381,0,1.445,1.445,0,0,0-.691,1.242v53.839a1.445,1.445,0,0,0,.691,1.242,1.337,1.337,0,0,0,1.381,0l44.9-26.92a1.462,1.462,0,0,0,0-2.484Z" transform="translate(-287.522 -158.021)" fill="#6c63ff"/>
  <path id="Path_54" data-name="Path 54" d="M523.162,743.115H0v-1.564H523.435Z" transform="translate(0 -209.864)" fill="#3f3d56"/>
  <g id="Group_1" data-name="Group 1" transform="translate(345.507 214.199)">
    <ellipse id="Ellipse_3" data-name="Ellipse 3" cx="19.292" cy="20.032" rx="19.292" ry="20.032" transform="translate(43.111 8.178)" fill="#ffb8b8"/>
    <path id="Path_21" data-name="Path 21" d="M812.537,600.58a9.276,9.276,0,0,1,.778-7.293,8.661,8.661,0,0,1,5.759-4.252,7.913,7.913,0,0,1,1.146-.143l20.322-33.867L821.982,536.7a7.9,7.9,0,0,1-.172-10.877,7.217,7.217,0,0,1,10.476-.178l25.629,26.246.052.065a7.182,7.182,0,0,1-.467,8.307l-28.474,34.964a8.7,8.7,0,0,1,.212.853,9.24,9.24,0,0,1-1.571,7.152,8.566,8.566,0,0,1-6.185,3.545q-.368.034-.732.034a8.709,8.709,0,0,1-8.212-6.231Z" transform="translate(-751.382 -460.067)" fill="#ffb8b8"/>
    <path id="Path_22" data-name="Path 22" d="M583.4,524.731h-9.63l-4.581-38.569h14.212Z" transform="translate(-552.775 -217.723)" fill="#ffb8b8"/>
    <path id="Path_23" data-name="Path 23" d="M798.621,714.507H766.785v-.82a12.724,12.724,0,0,1,12.479-12.957h19.358Z" transform="translate(-765.143 -397.399)" fill="#2f2e41"/>
    <path id="Path_24" data-name="Path 24" d="M660.791,513.1l-8.274,5.116L629.578,487.51l12.213-7.55Z" transform="translate(-534.449 -219.916)" fill="#ffb8b8"/>
    <path id="Path_25" data-name="Path 25" d="M847.664,718.531l-.4-.7a13.24,13.24,0,0,1,4.338-17.762l16.633-10.284,6.786,11.832Z" transform="translate(-741.251 -401.271)" fill="#2f2e41"/>
    <path id="Path_26" data-name="Path 26" d="M778.332,738.508c-6.451-78.874-10.29-152.147,13.294-182.038l.182-.232,39.686,16.484.066.147c.134.3,13.332,30.449,10.254,50.727l9.789,46.758,31.918,55.5a3.8,3.8,0,0,1,.333,3,3.627,3.627,0,0,1-1.944,2.244l-13.871,6.337a3.482,3.482,0,0,1-4.436-1.44l-34.72-58.79-19.612-45.092a1.17,1.17,0,0,0-1.261-.705,1.2,1.2,0,0,0-.985,1.08l-10.87,106.108a3.58,3.58,0,0,1-3.514,3.282H781.855A3.614,3.614,0,0,1,778.332,738.508Z" transform="translate(-763.129 -448.485)" fill="#2f2e41"/>
    <path id="Path_27" data-name="Path 27" d="M787.659,570.869l-.189-.094-.03-.215c-1.483-10.774.272-22.746,5.215-35.581,5.037-12.983,18.469-20.18,31.578-16.919h0A27.338,27.338,0,0,1,841.561,531.9a28.87,28.87,0,0,1,1.865,22.368c-6.232,18.922-14.316,36.627-14.4,36.8l-.169.369Z" transform="translate(-759.029 -462.259)" fill="#6c63ff"/>
    <path id="Path_28" data-name="Path 28" d="M765.6,612.662a9.168,9.168,0,0,1,6.326-9.993l37.111-73.981a6.989,6.989,0,0,1,12.449.26,7.629,7.629,0,0,1-.348,7.5L783.15,609.911a9.236,9.236,0,0,1,.138,1.354,9.415,9.415,0,0,1-2.556,6.727,8.717,8.717,0,0,1-6.444,2.744h0a8.776,8.776,0,0,1-6.816-3.466,9.3,9.3,0,0,1-1.874-4.607Z" transform="translate(-765.526 -459.369)" fill="#ffb8b8"/>
    <path id="Path_29" data-name="Path 29" d="M795.454,493.523h30.633V479.657c-6.723-2.774-13.3-5.133-17.28,0A13.616,13.616,0,0,0,795.454,493.523Z" transform="translate(-756.442 -476.629)" fill="#2f2e41"/>
    <path id="Path_30" data-name="Path 30" d="M825.713,477.059c18.313,0,23.439,23.836,23.439,37.283,0,7.5-3.266,10.182-8.4,11.089l-1.813-10.039L834.7,525.861c-1.442.007-2.956-.021-4.527-.052l-1.439-3.078-3.21,3.023c-12.856.02-23.246,1.966-23.246-11.414C802.274,500.9,806.77,477.059,825.713,477.059Z" transform="translate(-754.372 -476.477)" fill="#2f2e41"/>
  </g>
  <g id="Group_2" data-name="Group 2" transform="translate(396.396 214.233)">
    <path id="Path_53" data-name="Path 53" d="M814.018,287.152V268.6a1.643,1.643,0,0,0-1.611-1.673h-3.222a1.643,1.643,0,0,0-1.611,1.673v17.43a10.645,10.645,0,0,0-.048,20.865,10.151,10.151,0,0,0,11.316-7.013,10.749,10.749,0,0,0-4.824-12.734Z" transform="translate(-799.023 -266.93)" fill="#6c63ff"/>
    <ellipse id="Ellipse_8" data-name="Ellipse 8" cx="4.833" cy="5.018" rx="4.833" ry="5.018" transform="translate(5.867 24.534)" fill="#fff"/>
  </g>
</svg>
