<svg xmlns="http://www.w3.org/2000/svg" width="1595.78" height="711.934" viewBox="0 0 1595.78 711.934">
  <path id="blob" d="M164.505,2500.481c113.508-38.515,120.637-95.505,213.857-124.294s126-38.792,175.472-56.663c191.009-69,147.141-95.047,374.707-95.047,125.844,0,149.882,43.867,279.659,84.08s230.593,43.348,320.877,82.362c124.417,53.764,80.987,47,132.829,92.671s65.064,42.451,74.54,90c24.676,123.836-21.477,216.6-190.1,307.076-84.646,45.42-123.8-4.536-193.318,0-68.984,4.5-168.173,63.71-291.058,54.835-246.758-17.822-242.189-18.279-433.2-91.393s-223,13.252-321.7-63.974S104.644,2564.912,164.505,2500.481Z" transform="translate(-146.862 -2224.478)" fill="rgba(75,0,255,0.09)"/>
</svg>
