<svg xmlns="http://www.w3.org/2000/svg" width="28.855" height="20.288" viewBox="0 0 28.855 20.288">
  <path id="Icon_awesome-youtube" data-name="Icon awesome-youtube" d="M29.3,7.674a3.626,3.626,0,0,0-2.551-2.568C24.5,4.5,15.477,4.5,15.477,4.5S6.454,4.5,4.2,5.107A3.626,3.626,0,0,0,1.653,7.674a38.034,38.034,0,0,0-.6,6.99,38.034,38.034,0,0,0,.6,6.99A3.572,3.572,0,0,0,4.2,24.181c2.25.607,11.273.607,11.273.607s9.023,0,11.273-.607A3.572,3.572,0,0,0,29.3,21.655a38.034,38.034,0,0,0,.6-6.99,38.034,38.034,0,0,0-.6-6.99ZM12.526,18.955V10.374l7.542,4.29-7.542,4.29Z" transform="translate(-1.05 -4.5)" fill="#fff"/>
</svg>
