<svg xmlns="http://www.w3.org/2000/svg" width="26.942" height="26.942" viewBox="0 0 26.942 26.942">
  <g id="Icon_feather-settings" data-name="Icon feather-settings" transform="translate(1 1)">
    <path id="Path_13" data-name="Path 13" d="M20.3,16.9a3.4,3.4,0,1,1-3.4-3.4A3.4,3.4,0,0,1,20.3,16.9Z" transform="translate(-4.43 -4.43)" fill="none" stroke="#fff" stroke-linecap="round" stroke-linejoin="round" stroke-width="2"/>
    <path id="Path_14" data-name="Path 14" d="M22.36,17.372a1.871,1.871,0,0,0,.374,2.063l.068.068a2.269,2.269,0,1,1-3.208,3.208l-.068-.068a1.886,1.886,0,0,0-3.2,1.338v.193a2.267,2.267,0,0,1-4.535,0v-.1A1.871,1.871,0,0,0,10.57,22.36a1.871,1.871,0,0,0-2.063.374l-.068.068A2.269,2.269,0,1,1,5.23,19.594l.068-.068a1.886,1.886,0,0,0-1.338-3.2H3.767a2.267,2.267,0,0,1,0-4.535h.1A1.871,1.871,0,0,0,5.581,10.57a1.871,1.871,0,0,0-.374-2.063l-.068-.068A2.269,2.269,0,1,1,8.348,5.23l.068.068a1.871,1.871,0,0,0,2.063.374h.091A1.871,1.871,0,0,0,11.7,3.96V3.767a2.267,2.267,0,0,1,4.535,0v.1a1.886,1.886,0,0,0,3.2,1.338l.068-.068a2.269,2.269,0,1,1,3.208,3.208l-.068.068a1.871,1.871,0,0,0-.374,2.063v.091A1.871,1.871,0,0,0,23.981,11.7h.193a2.267,2.267,0,0,1,0,4.535h-.1a1.871,1.871,0,0,0-1.712,1.134Z" transform="translate(-1.5 -1.5)" fill="none" stroke="#fff" stroke-linecap="round" stroke-linejoin="round" stroke-width="2"/>
  </g>
</svg>
