<svg xmlns="http://www.w3.org/2000/svg" width="19.621" height="26.162" viewBox="0 0 19.621 26.162">
  <path id="Icon-awesome-file-image" d="M19.621,6.231v.31h-6.54V0h.31a1.226,1.226,0,0,1,.867.359l5,5A1.226,1.226,0,0,1,19.621,6.231ZM12.672,8.176a1.23,1.23,0,0,1-1.226-1.226V0H1.226A1.226,1.226,0,0,0,0,1.226V24.935a1.226,1.226,0,0,0,1.226,1.226H18.4a1.226,1.226,0,0,0,1.226-1.226V8.176Zm-6.921.818A2.453,2.453,0,1,1,3.3,11.446,2.453,2.453,0,0,1,5.751,8.993ZM16.379,21.256H3.3l.025-2.477L5.342,16.76a.584.584,0,0,1,.842.025L8.2,18.8l5.289-5.289a.613.613,0,0,1,.867,0l2.019,2.019Z" fill="#fff"/>
</svg>
